<?xml version="1.0" encoding="UTF-8" standalone="no"?>
<svg width="57px" height="57px" viewBox="0 0 57 57" version="1.1" xmlns="http://www.w3.org/2000/svg" xmlns:xlink="http://www.w3.org/1999/xlink">
    <!-- Generator: Sketch 3.6 (26304) - http://www.bohemiancoding.com/sketch -->
    <title>Instagram</title>
    <desc>Created with Sketch.</desc>
    <defs>
        <filter x="-50%" y="-50%" width="200%" height="200%" filterUnits="objectBoundingBox" id="filter-1">
            <feOffset dx="0" dy="2" in="SourceAlpha" result="shadowOffsetOuter1"></feOffset>
            <feGaussianBlur stdDeviation="2" in="shadowOffsetOuter1" result="shadowBlurOuter1"></feGaussianBlur>
            <feColorMatrix values="0 0 0 0 0   0 0 0 0 0   0 0 0 0 0  0 0 0 0.35 0" in="shadowBlurOuter1" type="matrix" result="shadowMatrixOuter1"></feColorMatrix>
            <feMerge>
                <feMergeNode in="shadowMatrixOuter1"></feMergeNode>
                <feMergeNode in="SourceGraphic"></feMergeNode>
            </feMerge>
        </filter>
    </defs>
    <g id="Pages" stroke="none" stroke-width="1" fill="none" fill-rule="evenodd" filter="url(#filter-1)">
        <g id="Pages-|-Home" transform="translate(-1094.000000, -696.000000)">
            <g id="D01_SECTION-1-|-Header">
                <g id="Social-Icons" transform="translate(903.000000, 698.000000)">
                    <g id="Instagram" transform="translate(195.025751, 0.000000)">
                        <path d="M0.641364211,24.0983607 C0.641364211,10.7892029 11.4366947,0 24.7534111,0 C38.0701276,0 48.8654581,10.7892029 48.8654581,24.0983607 C48.8654581,37.4075184 38.0701276,48.1967213 24.7534111,48.1967213 C11.4366947,48.1967213 0.641364211,37.4075184 0.641364211,24.0983607 Z" fill="#517FA4"></path>
                        <path d="M34.9446861,36.2855376 C35.9460103,36.0731394 36.7642253,35.2382431 36.9599387,34.2315387 C36.9809455,34.1227152 36.9963504,34.0121422 37.0142062,33.9029688 L37.0142062,14.2937525 C36.9970507,14.1863287 36.9823459,14.078555 36.9613391,13.9714811 C36.7467196,12.873099 35.8402761,12.020707 34.7272657,11.8684941 C34.6810507,11.8625456 34.6358861,11.852398 34.5903714,11.84435 L14.9164509,11.84435 C14.7977625,11.8656948 14.6783738,11.8817909 14.561436,11.9083844 C13.4750342,12.155774 12.6711739,13.0302107 12.5164238,14.1303423 C12.5101217,14.1761812 12.5006687,14.2216701 12.4926161,14.2675089 L12.4926161,33.9302622 C12.5150233,34.0548318 12.5328791,34.1804512 12.5608882,34.3043209 C12.801066,35.3659619 13.7078596,36.1889612 14.7865589,36.3275274 C14.8387258,36.3338258 14.8912428,36.3439734 14.9434096,36.3523713 L34.5634126,36.3523713 C34.6908539,36.3306766 34.8186453,36.312831 34.9446861,36.2855376 Z M15.1454251,21.8477097 C15.1454251,25.4745749 15.1450749,29.1014402 15.1457752,32.7283054 C15.1457752,33.2500281 15.5977715,33.6986187 16.1197906,33.6986187 C21.8742539,33.6989686 27.6283671,33.6989686 33.3828304,33.6986187 C33.909751,33.6986187 34.3592966,33.250728 34.3592966,32.7251562 C34.3596467,29.1024899 34.3592966,25.4801736 34.3592966,21.8578572 L34.3592966,21.7826256 L32.0184386,21.7826256 C32.3489456,22.838318 32.4504785,23.9122061 32.3209365,25.0067391 C32.1906944,26.101622 31.8377801,27.1205734 31.2628939,28.0614939 C30.6876577,29.0034641 29.9419162,29.7837737 29.0288205,30.4048722 C26.6620542,32.0158792 23.5460452,32.1575946 21.034682,30.7488383 C19.7651709,30.0374618 18.7683982,29.0454538 18.0734232,27.7672156 C17.0367375,25.8598309 16.8711338,23.8579693 17.4792808,21.780876 C16.7027293,21.7815758 15.9293289,21.7815758 15.1454251,21.7815758 L15.1454251,21.8477097 Z M19.7847773,24.023129 C19.7455646,26.8018012 21.9712353,29.0045138 24.6394492,29.0618998 C27.4158483,29.1213853 29.6614754,26.9043261 29.7199443,24.2078839 C29.7798137,21.4271123 27.535587,19.1302726 24.7535862,19.1320222 C22.0339056,19.1302726 19.8229397,21.3172391 19.7847773,24.023129 Z M33.4167914,18.1298667 C33.9360095,18.1169198 34.3589464,17.6721783 34.3589464,17.1525551 C34.3592966,16.3788938 34.3592966,15.6048826 34.3589464,14.8312214 C34.3589464,14.2762567 33.9195542,13.8346645 33.3649746,13.8343145 C32.5929746,13.8339646 31.8209746,13.8336147 31.0486246,13.8343145 C30.4954454,13.8350144 30.0546527,14.2776564 30.0543026,14.832621 C30.0539525,15.5996339 30.0518518,16.3666468 30.0571035,17.1340096 C30.0578037,17.2484317 30.0795108,17.3674027 30.1159225,17.4758762 C30.2545674,17.8842266 30.6288386,18.1347655 31.087137,18.136865 C31.4596576,18.1375648 31.8321783,18.136515 32.205049,18.136515 C32.6083796,18.1319661 33.0131107,18.1396643 33.4167914,18.1298667 Z" id="Path" fill="#FFFFFF"></path>
                        <path d="M48.8654581,24.0983607 C48.8654581,37.4075184 38.0701276,48.1967213 24.7534111,48.1967213 C19.8145565,48.1967213 15.2225165,46.7126747 11.3994738,44.1664917 L39.0277674,4.67460886 C44.9939205,9.061506 48.8654581,16.1280667 48.8654581,24.0983607 Z" id="reflec" fill-opacity="0.08" fill="#000000"></path>
                    </g>
                </g>
            </g>
        </g>
    </g>
</svg>