<?xml version="1.0" encoding="UTF-8" standalone="no"?>
<svg width="19px" height="19px" viewBox="0 0 19 19" version="1.1" xmlns="http://www.w3.org/2000/svg" xmlns:xlink="http://www.w3.org/1999/xlink">
    <!-- Generator: Sketch 3.6 (26304) - http://www.bohemiancoding.com/sketch -->
    <title>gp_icon</title>
    <desc>Created with Sketch.</desc>
    <defs></defs>
    <g id="Pages" stroke="none" stroke-width="1" fill="none" fill-rule="evenodd">
        <g id="Pages-|-Sign-Up" transform="translate(-416.000000, -623.000000)" fill="#FFFFFF">
            <g id="Google" transform="translate(395.000000, 608.000000)">
                <path d="M29.0270438,24.0889424 C29.0270438,24.362981 29.1488383,24.6313102 29.3924282,24.8939307 C29.636018,25.1565504 29.9309895,25.415365 30.277344,25.6703731 C30.6236978,25.9253811 30.9681494,26.2051285 31.3106974,26.5096153 C31.6532454,26.8141028 31.9463139,27.209936 32.1899038,27.6971157 C32.4334936,28.1842954 32.5552889,28.7247596 32.5552889,29.3185098 C32.5552889,30.0036058 32.372596,30.6620595 32.0072116,31.2938702 C31.459135,32.2225566 30.6560496,32.9057497 29.5979568,33.3434499 C28.5398641,33.7811502 27.405649,34 26.1953128,34 C25.1905053,34 24.2523035,33.8420472 23.3807095,33.5261421 C22.5091148,33.2102365 21.8563706,32.6868992 21.4224762,31.9561297 C21.1408259,31.4993995 21,31.0008016 21,30.4603367 C21,29.84375 21.1693711,29.272837 21.5081132,28.7475961 C21.8468553,28.2223559 22.2978767,27.7846556 22.8611781,27.4344953 C23.8583732,26.8102969 25.396034,26.4296878 27.474159,26.2926685 C27.2305691,25.9729569 27.0497798,25.6913066 26.9317911,25.4477167 C26.8138024,25.2041269 26.7548077,24.9262824 26.7548077,24.6141832 C26.7548077,24.3401446 26.8347359,24.0166272 26.9945917,23.6436297 C26.6444313,23.6740785 26.3856174,23.6893033 26.2181493,23.6893033 C25.0915465,23.6893033 24.1419272,23.3220153 23.3692913,22.5874399 C22.5966548,21.8528645 22.2103368,20.9222758 22.2103368,19.7956731 C22.2103368,19.1714747 22.3473562,18.5663063 22.6213941,17.9801685 C22.8954328,17.3940307 23.2722361,16.8954328 23.7518027,16.4843755 C24.3379412,15.9819717 25.0325525,15.6089749 25.8356372,15.3653851 C26.6387219,15.1217953 27.4665466,15 28.3191107,15 L33.0919473,15 L31.5162261,16.0048082 L30.020433,16.0048082 C30.5837344,16.4843755 31.0100165,16.9905851 31.2992792,17.5234376 C31.5885419,18.0562902 31.7331729,18.6652645 31.7331729,19.3503611 C31.7331729,19.8984377 31.6399242,20.3913262 31.4534255,20.8290264 C31.2669274,21.2667267 31.0423682,21.6206936 30.7797478,21.8909257 C30.5171273,22.1611578 30.252604,22.4085542 29.9861784,22.6331135 C29.7197514,22.8576727 29.4932892,23.0917472 29.3067912,23.3353371 C29.1202925,23.5789262 29.0270438,23.8301285 29.0270438,24.0889424 L29.0270438,24.0889424 Z M27.3599761,22.9927884 C27.6492388,22.9927884 27.9461139,22.9299885 28.2506014,22.8043874 C28.5550882,22.6787863 28.8062904,22.5132211 29.0042066,22.3076925 C29.4076522,21.873798 29.6093751,21.2686303 29.6093751,20.4921879 C29.6093751,20.0506811 29.5446716,19.5749203 29.4152646,19.0649042 C29.2858577,18.5548881 29.1012619,18.0619996 28.8614785,17.5862382 C28.6216946,17.1104767 28.3000801,16.7165464 27.8966345,16.4044473 C27.4931896,16.0923481 27.0478769,15.9362982 26.5606972,15.9362982 C26.2409857,15.9362982 25.9269836,16.0105169 25.6186903,16.1589545 C25.310397,16.307392 25.0610977,16.5072119 24.8707938,16.7584135 C24.5130211,17.2075326 24.3341347,17.8165069 24.3341347,18.5853369 C24.3341347,18.9354973 24.3721959,19.3065911 24.4483176,19.6986178 C24.5244393,20.0906452 24.6443309,20.4826726 24.8079932,20.8747 C24.9716548,21.2667267 25.1695718,21.61879 25.4017427,21.9308898 C25.6339144,22.242989 25.9193712,22.497997 26.2581134,22.695914 C26.5968548,22.8938303 26.9641428,22.9927884 27.3599761,22.9927884 L27.3599761,22.9927884 Z M27.3828125,32.9609378 C27.8243193,32.9609378 28.2486978,32.9114584 28.6559499,32.8125003 C29.0632013,32.7135422 29.440004,32.5651046 29.7863585,32.3671877 C30.1327123,32.1692707 30.4105568,31.8914262 30.619892,31.5336542 C30.8292272,31.1758814 30.9338941,30.7610176 30.9338941,30.2890627 C30.9338941,30.0987581 30.9072518,29.91226 30.8539665,29.7295678 C30.8006813,29.5468749 30.7454931,29.3870192 30.6884013,29.2500005 C30.6313102,29.1129812 30.5285456,28.9550283 30.380108,28.776142 C30.2316711,28.5972556 30.1193912,28.4640428 30.0432695,28.3765029 C29.9671478,28.2889623 29.8206132,28.1576524 29.6036663,27.9825726 C29.3867187,27.8074921 29.2477965,27.6971157 29.1868989,27.6514428 C29.1260019,27.6057693 28.9680491,27.4915871 28.713041,27.3088942 C28.4580329,27.126202 28.3191107,27.0272438 28.2962742,27.0120198 C28.1744797,26.996795 27.9917868,26.9891826 27.7481976,26.9891826 C27.344752,26.9891826 26.9451122,27.0158256 26.549279,27.0691109 C26.1534458,27.1223961 25.7442907,27.2175484 25.3218152,27.3545677 C24.899339,27.4915871 24.5301487,27.6666669 24.214243,27.8798079 C23.8983373,28.0929489 23.6376205,28.3765029 23.4320912,28.7304691 C23.2265625,29.0844353 23.1237986,29.485978 23.1237986,29.9350965 C23.1237986,30.467949 23.2570114,30.938001 23.5234376,31.3452525 C23.7898639,31.7525039 24.1381213,32.0684096 24.5682092,32.2929689 C24.9982971,32.5175281 25.4512222,32.6849963 25.9269836,32.7953726 C26.4027444,32.9057497 26.8880211,32.9609378 27.3828125,32.9609378 L27.3828125,32.9609378 Z M36.6316106,22.9585338 L39.0637018,22.9585338 L39.0637018,24.191707 L36.6316106,24.191707 L36.6316106,26.6923082 L35.4326927,26.6923082 L35.4326927,24.191707 L33.0120191,24.191707 L33.0120191,22.9585338 L35.4326927,22.9585338 L35.4326927,20.4807697 L36.6316106,20.4807697 L36.6316106,22.9585338 Z" id="gp_icon"></path>
            </g>
        </g>
    </g>
</svg>