<?xml version="1.0" encoding="UTF-8" standalone="no"?>
<svg width="57px" height="57px" viewBox="0 0 57 57" version="1.1" xmlns="http://www.w3.org/2000/svg" xmlns:xlink="http://www.w3.org/1999/xlink">
    <!-- Generator: Sketch 3.6 (26304) - http://www.bohemiancoding.com/sketch -->
    <title>Facebook</title>
    <desc>Created with Sketch.</desc>
    <defs>
        <filter x="-50%" y="-50%" width="200%" height="200%" filterUnits="objectBoundingBox" id="filter-1">
            <feOffset dx="0" dy="2" in="SourceAlpha" result="shadowOffsetOuter1"></feOffset>
            <feGaussianBlur stdDeviation="2" in="shadowOffsetOuter1" result="shadowBlurOuter1"></feGaussianBlur>
            <feColorMatrix values="0 0 0 0 0   0 0 0 0 0   0 0 0 0 0  0 0 0 0.35 0" in="shadowBlurOuter1" type="matrix" result="shadowMatrixOuter1"></feColorMatrix>
            <feMerge>
                <feMergeNode in="shadowMatrixOuter1"></feMergeNode>
                <feMergeNode in="SourceGraphic"></feMergeNode>
            </feMerge>
        </filter>
    </defs>
    <g id="Pages" stroke="none" stroke-width="1" fill="none" fill-rule="evenodd" filter="url(#filter-1)">
        <g id="Pages-|-Home" transform="translate(-899.000000, -696.000000)">
            <g id="D01_SECTION-1-|-Header">
                <g id="Social-Icons" transform="translate(903.000000, 698.000000)">
                    <g id="Facebook">
                        <path d="M0.0916234588,24.0983607 C0.0916234588,10.7892029 10.8869539,0 24.2036704,0 C37.5203869,0 48.3157173,10.7892029 48.3157173,24.0983607 C48.3157173,37.4075184 37.5203869,48.1967213 24.2036704,48.1967213 C10.8869539,48.1967213 0.0916234588,37.4075184 0.0916234588,24.0983607 Z" fill="#3B5998"></path>
                        <path d="M26.2198999,37.2076061 L26.2198999,24.0968256 L29.8358787,24.0968256 L30.315074,19.5787781 L26.2198999,19.5787781 L26.2260434,17.3174518 C26.2260434,16.1390754 26.3379068,15.5076744 28.0289132,15.5076744 L30.2894759,15.5076744 L30.2894759,10.9891152 L26.6729851,10.9891152 C22.3289981,10.9891152 20.8000273,13.1808543 20.8000273,16.8666704 L20.8000273,19.5792898 L18.0922668,19.5792898 L18.0922668,24.0973373 L20.8000273,24.0973373 L20.8000273,37.2076061 L26.2198999,37.2076061 Z" id="Path" fill="#FFFFFF"></path>
                        <path d="M48.3157173,24.0983607 C48.3157173,37.4075184 37.5203869,48.1967213 24.2036704,48.1967213 C19.2648157,48.1967213 14.6727757,46.7126747 10.849733,44.1664917 L38.4780266,4.67460886 C44.4441798,9.061506 48.3157173,16.1280667 48.3157173,24.0983607 Z" id="reflec" fill-opacity="0.08" fill="#000000"></path>
                    </g>
                </g>
            </g>
        </g>
    </g>
</svg>