<?xml version="1.0" encoding="UTF-8" standalone="no"?>
<svg width="57px" height="57px" viewBox="0 0 57 57" version="1.1" xmlns="http://www.w3.org/2000/svg" xmlns:xlink="http://www.w3.org/1999/xlink">
    <!-- Generator: Sketch 3.6 (26304) - http://www.bohemiancoding.com/sketch -->
    <title>Google +</title>
    <desc>Created with Sketch.</desc>
    <defs>
        <filter x="-50%" y="-50%" width="200%" height="200%" filterUnits="objectBoundingBox" id="filter-1">
            <feOffset dx="0" dy="2" in="SourceAlpha" result="shadowOffsetOuter1"></feOffset>
            <feGaussianBlur stdDeviation="2" in="shadowOffsetOuter1" result="shadowBlurOuter1"></feGaussianBlur>
            <feColorMatrix values="0 0 0 0 0   0 0 0 0 0   0 0 0 0 0  0 0 0 0.35 0" in="shadowBlurOuter1" type="matrix" result="shadowMatrixOuter1"></feColorMatrix>
            <feMerge>
                <feMergeNode in="shadowMatrixOuter1"></feMergeNode>
                <feMergeNode in="SourceGraphic"></feMergeNode>
            </feMerge>
        </filter>
    </defs>
    <g id="Pages" stroke="none" stroke-width="1" fill="none" fill-rule="evenodd" filter="url(#filter-1)">
        <g id="Pages-|-Home" transform="translate(-1029.000000, -696.000000)">
            <g id="D01_SECTION-1-|-Header">
                <g id="Social-Icons" transform="translate(903.000000, 698.000000)">
                    <g id="Google-+" transform="translate(130.017167, 0.000000)">
                        <path d="M0.0916234588,24.0983607 C0.0916234588,10.7892029 10.8869539,0 24.2036704,0 C37.5203869,0 48.3157173,10.7892029 48.3157173,24.0983607 C48.3157173,37.4075184 37.5203869,48.1967213 24.2036704,48.1967213 C10.8869539,48.1967213 0.0916234588,37.4075184 0.0916234588,24.0983607 Z" fill="#D34836"></path>
                        <path d="M47.5665104,18.551159 L41.864499,18.551159 L41.864499,24.8831864 L39.176813,24.8831864 L39.176813,18.551159 L32.9055794,18.551159 L32.9055794,15.9157382 L39.176813,15.9157382 L39.176813,9.63934426 L41.864499,9.63934426 L41.864499,15.9157382 L46.6522227,15.9157382 C47.0058364,16.770563 47.3117192,17.650186 47.5665104,18.551159 Z" id="Shape" fill="#FFFFFF"></path>
                        <path d="M6.71555615,39.6941496 C7.38977163,38.5610021 8.43519407,37.4469434 9.98392438,36.531446 C13.4783929,34.3915419 18.1848159,34.108913 20.7299202,33.9474108 C19.9421498,32.9380221 19.033184,31.86807 19.033184,30.1117336 C19.033184,29.1629082 19.3159734,28.5976505 19.5987627,27.9314539 C18.9725863,27.9920172 18.3666091,28.0525805 17.8010303,28.0525805 C11.8422545,28.0525805 8.46898137,23.6112701 8.46898137,19.2305229 C8.46898137,16.6464877 9.66073654,13.7757862 12.0644461,11.6984641 C15.2761253,9.05992195 19.0937817,8.60973457 22.1236677,8.60973457 L33.6978324,8.60973457 L30.1023676,10.6305308 L26.6280983,10.6305308 C27.9208497,11.6984641 30.6073486,13.9453635 30.6073486,18.2211342 C30.6073486,22.3798158 28.2440375,24.33803 25.9009257,26.1953053 C25.1535538,26.9220652 24.3253849,27.7093884 24.3253849,28.9408426 C24.3253849,30.1722969 25.1535538,30.8586813 25.7797302,31.3633756 L27.7996542,32.9380221 C30.2841608,34.9971751 32.5262764,36.9150137 32.5262764,40.7910665 C32.5262764,43.3471797 31.3327385,45.9127226 29.0072186,47.8815997 C27.7559736,48.0854783 26.4723793,48.1931065 25.1642927,48.1966318 C27.5256788,47.1613821 28.7490185,45.2672254 28.7490185,42.9915339 C28.7490185,40.1248699 26.9108877,38.6107868 22.6286487,35.5624328 C22.1842655,35.5220572 21.9014761,35.5220572 21.3358974,35.5220572 C20.8309164,35.5220572 17.8010303,35.6229961 15.4377192,36.4103193 C14.2055656,36.8544504 10.6101008,38.2070313 10.6101008,42.2042107 C10.6101008,42.6386064 10.6563707,43.0597552 10.7466466,43.4653684 C4.82415983,39.07447 7.38977167,39.6941506 6.71555615,39.6941496 Z M25.6585348,20.8051694 C25.6585348,16.7474266 23.2548252,10.4629723 18.5888007,10.4629723 C17.1344554,10.4629723 15.5589147,11.1937698 14.6499489,12.3182288 C13.7005846,13.4971949 13.4177952,15.011278 13.4177952,16.4647978 C13.4177952,20.2399117 15.5993132,26.4779341 20.4471308,26.4779341 C21.8408784,26.4779341 23.3558214,25.7915498 24.2647872,24.9032877 C25.5575386,23.6112701 25.6585348,21.8145581 25.6585348,20.8051694 Z" id="Path" fill="#FFFFFF"></path>
                        <path d="M48.3690855,24.2434239 C48.3690855,37.5525817 37.5737551,48.3417846 24.2570386,48.3417846 C19.3181839,48.3417846 14.7261439,46.8577379 10.9031012,44.311555 L38.5313949,4.81967213 C44.497548,9.20656927 48.3690855,16.2731299 48.3690855,24.2434239 Z" id="reflec" fill-opacity="0.08" fill="#000000"></path>
                    </g>
                </g>
            </g>
        </g>
    </g>
</svg>