<?xml version="1.0" encoding="UTF-8" standalone="no"?>
<svg width="57px" height="57px" viewBox="0 0 57 57" version="1.1" xmlns="http://www.w3.org/2000/svg" xmlns:xlink="http://www.w3.org/1999/xlink">
    <!-- Generator: Sketch 3.6 (26304) - http://www.bohemiancoding.com/sketch -->
    <title>LinkedIN</title>
    <desc>Created with Sketch.</desc>
    <defs>
        <filter x="-50%" y="-50%" width="200%" height="200%" filterUnits="objectBoundingBox" id="filter-1">
            <feOffset dx="0" dy="2" in="SourceAlpha" result="shadowOffsetOuter1"></feOffset>
            <feGaussianBlur stdDeviation="2" in="shadowOffsetOuter1" result="shadowBlurOuter1"></feGaussianBlur>
            <feColorMatrix values="0 0 0 0 0   0 0 0 0 0   0 0 0 0 0  0 0 0 0.35 0" in="shadowBlurOuter1" type="matrix" result="shadowMatrixOuter1"></feColorMatrix>
            <feMerge>
                <feMergeNode in="shadowMatrixOuter1"></feMergeNode>
                <feMergeNode in="SourceGraphic"></feMergeNode>
            </feMerge>
        </filter>
    </defs>
    <g id="Pages" stroke="none" stroke-width="1" fill="none" fill-rule="evenodd" filter="url(#filter-1)">
        <g id="Pages-|-Home" transform="translate(-1224.000000, -696.000000)">
            <g id="D01_SECTION-1-|-Header">
                <g id="Social-Icons" transform="translate(903.000000, 698.000000)">
                    <g id="LinkedIN" transform="translate(325.042918, 0.000000)">
                        <path d="M0.366493835,24.0983607 C0.366493835,10.7892029 11.1618243,0 24.4785408,0 C37.7952572,0 48.5905877,10.7892029 48.5905877,24.0983607 C48.5905877,37.4075184 37.7952572,48.1967213 24.4785408,48.1967213 C11.1618243,48.1967213 0.366493835,37.4075184 0.366493835,24.0983607 Z" fill="#007BB6"></path>
                        <path d="M18.3328271,19.0455886 L12.876395,19.0455886 L12.876395,35.4542743 L18.3328271,35.4542743 L18.3328271,19.0455886 Z" id="Path" fill="#FFFFFF"></path>
                        <path d="M18.6922015,13.9697202 C18.6567871,12.3608589 17.5072903,11.135454 15.6406793,11.135454 C13.7740682,11.135454 12.5537427,12.3608589 12.5537427,13.9697202 C12.5537427,15.5452563 13.738,16.8059466 15.5698505,16.8059466 L15.6047201,16.8059466 C17.5072903,16.8059466 18.6922015,15.5452563 18.6922015,13.9697202 Z" id="Path" fill="#FFFFFF"></path>
                        <path d="M38.0108087,26.0460354 C38.0108087,21.0059969 35.3189877,18.6602809 31.7284039,18.6602809 C28.8313974,18.6602809 27.5343588,20.2529152 26.8101617,21.3701769 L26.8101617,19.0460242 L21.3530757,19.0460242 C21.4249942,20.5857305 21.3530757,35.4547099 21.3530757,35.4547099 L26.8101617,35.4547099 L26.8101617,26.2907461 C26.8101617,25.8003445 26.845576,25.3111409 26.9898488,24.9600295 C27.3842018,23.9803155 28.2820929,22.9659695 29.7895475,22.9659695 C31.764799,22.9659695 32.5543766,24.4706081 32.5543766,26.6756182 L32.5543766,35.4542743 L38.0105907,35.4542743 L38.0108087,26.0460354 Z" id="Path" fill="#FFFFFF"></path>
                        <path d="M48.5905877,24.0983607 C48.5905877,37.4075184 37.7952572,48.1967213 24.4785408,48.1967213 C19.5396861,48.1967213 14.9476461,46.7126747 11.1246034,44.1664917 L38.752897,4.67460886 C44.7190501,9.061506 48.5905877,16.1280667 48.5905877,24.0983607 Z" id="reflec" fill-opacity="0.08" fill="#000000"></path>
                    </g>
                </g>
            </g>
        </g>
    </g>
</svg>