<?xml version="1.0" encoding="UTF-8" standalone="no"?>
<svg width="57px" height="57px" viewBox="0 0 57 57" version="1.1" xmlns="http://www.w3.org/2000/svg" xmlns:xlink="http://www.w3.org/1999/xlink">
    <!-- Generator: Sketch 3.6 (26304) - http://www.bohemiancoding.com/sketch -->
    <title>Youtube</title>
    <desc>Created with Sketch.</desc>
    <defs>
        <filter x="-50%" y="-50%" width="200%" height="200%" filterUnits="objectBoundingBox" id="filter-1">
            <feOffset dx="0" dy="2" in="SourceAlpha" result="shadowOffsetOuter1"></feOffset>
            <feGaussianBlur stdDeviation="2" in="shadowOffsetOuter1" result="shadowBlurOuter1"></feGaussianBlur>
            <feColorMatrix values="0 0 0 0 0   0 0 0 0 0   0 0 0 0 0  0 0 0 0.35 0" in="shadowBlurOuter1" type="matrix" result="shadowMatrixOuter1"></feColorMatrix>
            <feMerge>
                <feMergeNode in="shadowMatrixOuter1"></feMergeNode>
                <feMergeNode in="SourceGraphic"></feMergeNode>
            </feMerge>
        </filter>
    </defs>
    <g id="Pages" stroke="none" stroke-width="1" fill="none" fill-rule="evenodd" filter="url(#filter-1)">
        <g id="Pages-|-Home" transform="translate(-1159.000000, -696.000000)">
            <g id="D01_SECTION-1-|-Header">
                <g id="Social-Icons" transform="translate(903.000000, 698.000000)">
                    <g id="Youtube" transform="translate(260.034335, 0.000000)">
                        <path d="M0.366493835,24.0983607 C0.366493835,10.7892029 11.1618243,0 24.4785408,0 C37.7952572,0 48.5905877,10.7892029 48.5905877,24.0983607 C48.5905877,37.4075184 37.7952572,48.1967213 24.4785408,48.1967213 C11.1618243,48.1967213 0.366493835,37.4075184 0.366493835,24.0983607 Z" id="YouTube" fill="#CD332D"></path>
                        <path d="M35.335247,24.442415 C36.4919396,25.594348 36.5044528,31.281161 36.5044528,31.314017 C36.5044528,31.314017 36.4950822,37.0304353 35.335247,38.1863737 C34.183354,39.3358686 24.4739126,39.3606557 24.4739126,39.3606557 C24.4739126,39.3606557 14.7658426,39.3358686 13.6109212,38.1864317 C12.4558856,37.0344407 12.4526859,31.3571477 12.4526859,31.314017 C12.4526859,31.2812771 12.4558285,25.594348 13.6109212,24.442415 C14.7659569,23.2922234 24.4739126,23.2768984 24.4739126,23.2777691 C24.4739126,23.2768984 34.183354,23.2922234 35.335247,24.442415 Z M17.9808584,36.0542759 L16.3992909,36.0542759 L16.3992909,27.7926801 L14.7642427,27.7926801 L14.7642427,26.3889287 L19.6158494,26.3889287 L19.6159065,27.7926801 L17.9808584,27.7926801 L17.9808584,36.0542759 Z M22.8371503,35.2701441 C22.5759746,35.5610879 22.3083994,35.7809211 22.0267684,35.9312692 C21.746623,36.0848099 21.4759053,36.1582425 21.2115298,36.1582425 C20.8857315,36.1582425 20.6449539,36.054334 20.4782265,35.8401896 C20.3161272,35.6266257 20.2327064,35.311011 20.2327064,34.88487 L20.2327064,28.9229607 L21.6349191,28.9229607 L21.6349191,34.3924367 C21.6349191,34.561883 21.664802,34.6833804 21.7215396,34.7584964 C21.7829053,34.8352378 21.8788964,34.8720411 22.0095129,34.8720411 C22.1118462,34.8720411 22.2440054,34.8216542 22.4013622,34.7217511 C22.5603189,34.6209773 22.7035056,34.4946617 22.8372075,34.3404244 L22.8372075,28.9230768 L24.239363,28.9230768 L24.2393058,36.054334 L22.8371503,36.054334 L22.8371503,35.2701441 Z M28.0445525,36.1445428 C27.7691495,36.1445428 27.5251722,36.09433 27.3111349,35.9903635 C27.0972119,35.8865131 26.8940879,35.7265869 26.7116477,35.5076244 L26.7116477,36.054334 L25.2938365,36.054334 L25.2938365,26.3889287 L26.7116477,26.3889287 L26.7116477,29.5009009 C26.90203,29.285015 27.1018972,29.1179488 27.3127919,29.0061456 C27.5267149,28.8926589 27.7424663,28.8366412 27.9594747,28.8366412 C28.4048619,28.8366412 28.7432305,28.9885566 28.9761232,29.2907619 C29.2121584,29.5952893 29.3286619,30.0405285 29.3286619,30.6240994 L29.3286619,34.5810393 C29.3285476,35.0853728 29.2182721,35.4723303 28.9981211,35.7417958 C28.7793986,36.0118998 28.4599997,36.1445428 28.0445525,36.1445428 Z M31.5096022,34.0030991 C31.5096022,34.3788531 31.5553694,34.6386243 31.6465038,34.7849089 C31.740895,34.9295681 31.8982519,35.0008528 32.121774,35.0008528 C32.3545524,35.0008528 32.5167087,34.9392043 32.6095572,34.8161395 C32.7008631,34.6930166 32.7496014,34.4228546 32.7496014,34.0030991 L32.7496014,33.6777901 L34.1926674,33.6777901 L34.1926674,34.0439659 C34.1926674,34.7754468 34.0178836,35.3261619 33.6639165,35.6978524 C33.3146346,36.0655956 32.788912,36.2485674 32.0902912,36.2485674 C31.4623495,36.2485674 30.9666241,36.0542759 30.6062575,35.660991 C30.2457767,35.2702022 30.0632222,34.7312712 30.0632222,34.0439079 L30.0632222,30.8415526 C30.0632222,30.2252418 30.2630894,29.7184121 30.6596811,29.3298873 C31.0561586,28.9406077 31.5660541,28.7463743 32.1955957,28.7463743 C32.8375932,28.7463743 33.3317759,28.9269661 33.6763725,29.2875112 C34.0209691,29.6471855 34.1926103,30.1652187 34.1926103,30.8415526 L34.1926103,32.6593127 L31.5096022,32.6593707 L31.5096022,34.0030991 Z M27.7360669,30.1540151 C27.8350863,30.2786473 27.8839389,30.4616771 27.8839389,30.7023501 L27.8839389,34.3843678 C27.8839389,34.6137211 27.8414285,34.7752147 27.7613217,34.8751758 C27.6811006,34.9775169 27.5551123,35.0279038 27.3835853,35.0279038 C27.2640536,35.0279038 27.1523497,35.0006206 27.0452167,34.9503498 C26.9367125,34.9007175 26.8248943,34.8135853 26.7116477,34.6985313 L26.7116477,30.2556016 C26.8075817,30.1572659 26.9035728,30.0845299 27.0011066,30.0380904 C27.0987546,29.9901416 27.1978311,29.9685472 27.2985075,29.9685472 C27.48729,29.9685472 27.6337335,30.0308923 27.7360669,30.1540151 Z M31.6544459,30.1908185 C31.5569121,30.3153925 31.5097165,30.5312784 31.5097165,30.8295364 L31.5097165,31.5497558 L32.7497728,31.5497558 L32.7497728,30.8295364 C32.7497728,30.5313364 32.6994346,30.3155667 32.6017865,30.1908185 C32.5073953,30.0572467 32.3484958,29.994147 32.1360012,29.994147 C31.9125934,29.994147 31.752094,30.0572467 31.6544459,30.1908185 Z" id="Path" fill="#FFFFFF"></path>
                        <path d="M15.664502,9.63934426 L17.7809912,16.0680291 L17.7809912,20.2864236 L19.5593404,20.2864236 L19.5593404,15.8689776 L21.628634,9.63934426 L19.820459,9.63934426 L18.722161,13.8952967 L18.6103999,13.8952967 L17.4553072,9.63934426 L15.664502,9.63934426 Z M24.1087465,12.2334575 C24.7617716,12.2334575 25.2984646,12.4236274 25.7170543,12.8041995 C26.1324444,13.1839009 26.3417963,13.6738962 26.3417963,14.2726761 L26.3417963,18.3303317 C26.3417963,19.0017896 26.1372439,19.5278336 25.7296817,19.9107857 C25.31732,20.2928671 24.7555436,20.4847785 24.0364104,20.4847785 C23.3471601,20.4847785 22.7932687,20.2864817 22.3777644,19.8933128 C21.9654598,19.4983445 21.7562221,18.9667858 21.7562221,18.2993333 L21.7561078,14.2286747 C21.7561078,13.6187492 21.9685453,13.1343267 22.3950199,12.7745943 C22.8199519,12.4140493 23.3926987,12.2334575 24.1087465,12.2334575 Z M24.0331536,19.1240417 C24.247248,19.1240417 24.4155752,19.06338 24.5430491,18.9442045 C24.6690374,18.822649 24.732003,18.6572662 24.732003,18.4477658 L24.732003,14.1686515 C24.732003,13.9968833 24.6673804,13.8585515 24.5383638,13.7522049 C24.4093472,13.6467291 24.2409628,13.5947168 24.0331536,13.5947168 C23.8396287,13.5947168 23.6838717,13.6467291 23.562683,13.7522049 C23.4430941,13.8585515 23.3817283,13.9967672 23.3817283,14.1686515 L23.3817283,18.4478238 C23.3816712,18.6628389 23.4398944,18.8282798 23.5515983,18.9473973 C23.6633593,19.065702 23.8239158,19.1240417 24.0331536,19.1240417 Z M30.5497485,20.2864817 L30.5497485,19.419165 C30.2617181,19.7380886 29.9580891,19.9835797 29.6416614,20.1497752 C29.3269477,20.3168415 29.0216047,20.4000844 28.7256893,20.4000844 C28.357552,20.4000844 28.0852345,20.2825343 27.8996517,20.0491175 C27.7154974,19.814888 27.6226488,19.4647919 27.6226488,18.9962749 L27.6226488,12.4316383 L29.1994167,12.4316383 L29.1994167,18.4533965 C29.1994167,18.6396772 29.2356991,18.7739455 29.3017501,18.8570723 C29.3662584,18.9403152 29.4748197,18.9825752 29.622806,18.9825752 C29.7376525,18.9825752 29.8856387,18.9266736 30.0633937,18.8171343 C30.2396059,18.7068404 30.403305,18.5660125 30.5496342,18.3934315 L30.5496342,12.4316383 L32.1297161,12.4316383 L32.1297161,20.2864817 L30.5497485,20.2864817 Z" id="Path" fill="#FFFFFF"></path>
                        <path d="M48.5905877,24.0983607 C48.5905877,37.4075184 37.7952572,48.1967213 24.4785408,48.1967213 C19.5396861,48.1967213 14.9476461,46.7126747 11.1246034,44.1664917 L38.752897,4.67460886 C44.7190501,9.061506 48.5905877,16.1280667 48.5905877,24.0983607 Z" id="reflec" fill-opacity="0.08" fill="#000000"></path>
                    </g>
                </g>
            </g>
        </g>
    </g>
</svg>