<?xml version="1.0" encoding="UTF-8" standalone="no"?>
<svg width="57px" height="57px" viewBox="0 0 57 57" version="1.1" xmlns="http://www.w3.org/2000/svg" xmlns:xlink="http://www.w3.org/1999/xlink">
    <!-- Generator: Sketch 3.6 (26304) - http://www.bohemiancoding.com/sketch -->
    <title>Twitter</title>
    <desc>Created with Sketch.</desc>
    <defs>
        <filter x="-50%" y="-50%" width="200%" height="200%" filterUnits="objectBoundingBox" id="filter-1">
            <feOffset dx="0" dy="2" in="SourceAlpha" result="shadowOffsetOuter1"></feOffset>
            <feGaussianBlur stdDeviation="2" in="shadowOffsetOuter1" result="shadowBlurOuter1"></feGaussianBlur>
            <feColorMatrix values="0 0 0 0 0   0 0 0 0 0   0 0 0 0 0  0 0 0 0.35 0" in="shadowBlurOuter1" type="matrix" result="shadowMatrixOuter1"></feColorMatrix>
            <feMerge>
                <feMergeNode in="shadowMatrixOuter1"></feMergeNode>
                <feMergeNode in="SourceGraphic"></feMergeNode>
            </feMerge>
        </filter>
    </defs>
    <g id="Pages" stroke="none" stroke-width="1" fill="none" fill-rule="evenodd" filter="url(#filter-1)">
        <g id="Pages-|-Home" transform="translate(-964.000000, -696.000000)">
            <g id="D01_SECTION-1-|-Header">
                <g id="Social-Icons" transform="translate(903.000000, 698.000000)">
                    <g id="Twitter" transform="translate(65.008584, 0.000000)">
                        <path d="M0,24.0983607 C0,10.7892029 10.7953305,0 24.1120469,0 C37.4287634,0 48.2240939,10.7892029 48.2240939,24.0983607 C48.2240939,37.4075184 37.4287634,48.1967213 24.1120469,48.1967213 C10.7953305,48.1967213 0,37.4075184 0,24.0983607 Z" fill="#4099FF"></path>
                        <path d="M23.515264,19.1887033 L23.5657886,20.022561 L22.7237116,19.9204559 C19.6585511,19.5290534 16.9807461,18.2016881 14.7071381,15.9723953 L13.5955964,14.8662576 L13.3092902,15.6830977 C12.7029947,17.5039705 13.0903502,19.4269484 14.3534657,20.7202786 C15.0271274,21.4350137 14.8755535,21.5371187 13.7134872,21.1116812 C13.3092902,20.9755411 12.9556178,20.8734361 12.9219348,20.9244886 C12.804044,21.0436111 13.208241,22.5922039 13.5282302,23.204834 C13.9661103,24.0557092 14.858712,24.8895668 15.8355213,25.3830744 L16.6607569,25.774477 L15.6839475,25.7914945 C14.7408212,25.7914945 14.7071381,25.808512 14.8081873,26.1658795 C15.1450182,27.2720172 16.4754999,28.4462249 17.9575555,28.95675 L19.001731,29.3141176 L18.0922878,29.8586777 C16.7449646,30.6414828 15.1618597,31.0839379 13.5787549,31.1179729 C12.8208855,31.1349904 12.1977485,31.2030604 12.1977485,31.2541129 C12.1977485,31.424288 14.2524165,32.3772681 15.4481659,32.7516532 C19.0354141,33.8577909 23.296324,33.3813008 26.4962168,31.492358 C28.7698248,30.1479752 31.0434328,27.4762273 32.1044499,24.8895668 C32.6770623,23.5111491 33.2496747,20.9925586 33.2496747,19.7843159 C33.2496747,19.0015108 33.3001993,18.8994058 34.2433256,17.9634431 C34.7990964,17.418883 35.3211842,16.8232704 35.4222335,16.6530954 C35.5906489,16.3297628 35.5738073,16.3297628 34.7148887,16.6190604 C33.2833578,17.1295855 33.0812593,17.0615154 33.788604,16.2957278 C34.3106917,15.7511677 34.9338288,14.7641525 34.9338288,14.474855 C34.9338288,14.4238025 34.6812057,14.50889 34.3948995,14.6620475 C34.0917517,14.8322226 33.4180901,15.0874851 32.9128439,15.2406426 L32.0034006,15.5299402 L31.1781651,14.9683626 C30.7234435,14.6620475 30.083465,14.3216975 29.7466342,14.2195925 C28.8877156,13.9813474 27.5740754,14.0153824 26.7993645,14.2876625 C24.6941719,15.0534501 23.3636901,17.0274804 23.515264,19.1887033 Z" id="Path" fill="#FFFFFF"></path>
                        <path d="M48.2240939,24.0983607 C48.2240939,37.4075184 37.4287634,48.1967213 24.1120469,48.1967213 C19.1731922,48.1967213 14.5811523,46.7126747 10.7581096,44.1664917 L38.3864032,4.67460886 C44.3525563,9.061506 48.2240939,16.1280667 48.2240939,24.0983607 Z" id="reflec" fill-opacity="0.08" fill="#000000"></path>
                    </g>
                </g>
            </g>
        </g>
    </g>
</svg>