<?xml version="1.0" encoding="UTF-8" standalone="no"?>
<svg width="17px" height="16px" viewBox="0 0 17 16" version="1.1" xmlns="http://www.w3.org/2000/svg" xmlns:xlink="http://www.w3.org/1999/xlink">
    <!-- Generator: Sketch 3.6 (26304) - http://www.bohemiancoding.com/sketch -->
    <title>linkedin_icon</title>
    <desc>Created with Sketch.</desc>
    <defs></defs>
    <g id="Pages" stroke="none" stroke-width="1" fill="none" fill-rule="evenodd">
        <g id="Pages-|-Sign-Up" transform="translate(-703.000000, -623.000000)" fill="#FFFFFF">
            <g id="Linkedin" transform="translate(685.000000, 608.000000)">
                <path d="M21.8038147,20.19891 L21.8038147,31 L18.2070842,31 L18.2070842,20.19891 L21.8038147,20.19891 Z M22.0326972,16.8637601 C22.0399636,17.3941869 21.856494,17.8374206 21.4822886,18.1934605 C21.1080838,18.5495005 20.6158037,18.7275201 20.0054495,18.7275201 L19.9836512,18.7275201 C19.387829,18.7275201 18.908265,18.5495005 18.5449594,18.1934605 C18.1816531,17.8374206 18,17.3941869 18,16.8637601 C18,16.326067 18.1871024,15.8810175 18.5613078,15.5286104 C18.9355132,15.1762032 19.4241598,15 20.0272478,15 C20.6303363,15 21.1135331,15.1762032 21.4768394,15.5286104 C21.8401456,15.8810175 22.0254316,16.326067 22.0326972,16.8637601 L22.0326972,16.8637601 Z M34.7411445,24.8092641 L34.7411445,31 L31.1553131,31 L31.1553131,25.2234332 C31.1553131,24.4604904 31.0081745,23.8628517 30.7138965,23.4305178 C30.4196185,22.9981833 29.9600364,22.7820163 29.3351496,22.7820163 C28.8773839,22.7820163 28.4940965,22.9073567 28.1852859,23.1580381 C27.8764759,23.4087196 27.6457764,23.7193459 27.4931878,24.0899185 C27.4132604,24.3079019 27.3732967,24.6021798 27.3732967,24.9727518 L27.3732967,31 L23.787466,31 C23.8019979,28.1008175 23.8092642,25.7502271 23.8092642,23.9482291 C23.8092642,22.1462303 23.8056314,21.0708448 23.7983651,20.7220705 L23.787466,20.19891 L27.3732967,20.19891 L27.3732967,21.7683921 L27.3514984,21.7683921 C27.4968213,21.5358761 27.6457764,21.3324247 27.7983649,21.1580379 C27.9509535,20.9836511 28.1562213,20.7947323 28.414169,20.5912809 C28.6721161,20.3878294 28.9881924,20.229791 29.3623978,20.1171662 C29.7366032,20.0045413 30.1525887,19.9482286 30.6103544,19.9482286 C31.8528611,19.9482286 32.8519527,20.3605813 33.6076292,21.185286 C34.3633063,22.0099908 34.7411445,23.2179837 34.7411445,24.8092641 L34.7411445,24.8092641 Z" id="linkedin_icon"></path>
            </g>
        </g>
    </g>
</svg>