<?xml version="1.0" encoding="UTF-8" standalone="no"?>
<svg width="20px" height="16px" viewBox="0 0 20 16" version="1.1" xmlns="http://www.w3.org/2000/svg" xmlns:xlink="http://www.w3.org/1999/xlink">
    <!-- Generator: Sketch 3.6 (26304) - http://www.bohemiancoding.com/sketch -->
    <title>twitter_icon</title>
    <desc>Created with Sketch.</desc>
    <defs></defs>
    <g id="Pages" stroke="none" stroke-width="1" fill="none" fill-rule="evenodd">
        <g id="Pages-|-Sign-Up" transform="translate(-704.000000, -548.000000)" fill="#FFFFFF">
            <g id="Twitter" transform="translate(685.000000, 532.000000)">
                <path d="M36.6749995,19.9875001 C36.6833331,20.1041667 36.6874995,20.2791667 36.6874995,20.5125 C36.6874995,21.5958335 36.5291666,22.6770829 36.2124993,23.7562499 C35.8958327,24.8354162 35.4145829,25.870833 34.7687499,26.8624997 C34.1229161,27.8541663 33.3541668,28.7312495 32.4624997,29.4937499 C31.5708334,30.2562496 30.4958328,30.8645829 29.2375001,31.3187496 C27.9791667,31.7729163 26.6333329,32 25.2000003,32 C22.9416667,32 20.8750002,31.3958332 19,30.1874996 C19.2916667,30.220833 19.6166668,30.2375001 19.9750003,30.2375001 C21.8499997,30.2375001 23.5208336,29.6624996 24.9874997,28.5125 C24.1124997,28.4958329 23.3291665,28.227083 22.6375001,27.7062501 C21.9458336,27.1854166 21.4708334,26.5208332 21.2125002,25.7125001 C21.4874998,25.7541664 21.7416666,25.7749998 21.9749999,25.7749998 C22.3333335,25.7749998 22.6874998,25.7291665 23.0374998,25.6374997 C22.1041665,25.4458333 21.3312501,24.9812499 20.7187497,24.2437501 C20.1062501,23.5062503 19.8000003,22.6499998 19.8000003,21.6750003 L19.8000003,21.6249997 C20.3666665,21.9416663 20.9749997,22.1124999 21.6249999,22.1374998 C21.0750001,21.7708334 20.6375004,21.2916668 20.3125003,20.7 C19.9875002,20.1083331 19.8250002,19.4666665 19.8250002,18.775 C19.8250002,18.0416666 20.0083337,17.3625001 20.3750001,16.7374998 C21.3833331,17.9791669 22.610417,18.9729167 24.0562503,19.7187501 C25.5020829,20.4645835 27.0499998,20.8791664 28.7000002,20.9624996 C28.6333333,20.645833 28.5999999,20.3375 28.5999999,20.0374998 C28.5999999,18.9208337 28.99375,17.9687501 29.7812496,17.1812498 C30.56875,16.3937502 31.5208328,16 32.6374997,16 C33.8041663,16 34.7874994,16.4250004 35.5874997,17.2749998 C36.4958331,17.0999998 37.3499996,16.7750004 38.1499999,16.3000002 C37.8416662,17.2583334 37.2499993,18.0000004 36.3749993,18.5250004 C37.1499997,18.4416664 37.9249994,18.2333337 38.6999998,17.9000001 C38.1416664,18.7166667 37.4666663,19.4125003 36.6749995,19.9875001 Z" id="twitter_icon"></path>
            </g>
        </g>
    </g>
</svg>